<svg width="91" height="91" viewBox="0 0 91 91" fill="none" xmlns="http://www.w3.org/2000/svg">
<g clip-path="url(#clip0_6_1711)">
<path d="M48.6021 69.0291C48.2538 69.0291 47.9133 69.1323 47.6237 69.3258C47.3341 69.5193 47.1084 69.7944 46.9751 70.1161C46.8418 70.4379 46.807 70.792 46.8749 71.1336C46.9429 71.4752 47.1106 71.789 47.3568 72.0353C47.6031 72.2816 47.9169 72.4493 48.2585 72.5172C48.6001 72.5852 48.9542 72.5503 49.276 72.417C49.5978 72.2837 49.8728 72.058 50.0663 71.7684C50.2598 71.4788 50.3631 71.1383 50.3631 70.79C50.3628 70.3231 50.1772 69.8753 49.847 69.5451C49.5168 69.2149 49.069 69.0293 48.6021 69.0291Z" fill="#FF1414"/>
<path d="M84.8769 79.594H84.7999C86.4213 78.341 87.7435 76.7429 88.6706 74.9156C89.5977 73.0882 90.1064 71.0774 90.16 69.029C90.1563 66.1204 89.2544 63.2838 87.5777 60.9072C85.9009 58.5305 83.531 56.7297 80.7919 55.751L80.7689 55.743L65.7169 50.618L71.2529 22.188H73.2529C75.5856 22.184 77.8216 21.2556 79.4711 19.6062C81.1206 17.9567 82.049 15.7207 82.0529 13.388V5.288C82.0529 3.88687 81.4963 2.54311 80.5056 1.55236C79.5148 0.561605 78.1711 0.00500488 76.7699 0.00500488C75.3688 0.00500488 74.0251 0.561605 73.0343 1.55236C72.0435 2.54311 71.4869 3.88687 71.4869 5.288V11.627H62.6869C61.4743 11.6268 60.2985 12.044 59.3573 12.8085C58.416 13.573 57.7665 14.6382 57.518 15.8251C57.2695 17.012 57.4372 18.2483 57.9928 19.3261C58.5484 20.404 59.458 21.2578 60.5689 21.744L55.6279 47.183L30.5499 38.645C29.0753 38.1221 27.5505 37.7531 25.9999 37.544L22.9149 25.71H28.6909C30.3278 25.7082 31.9043 25.0915 33.1079 23.9821C34.3116 22.8728 35.0545 21.3517 35.1895 19.7204C35.3245 18.0891 34.8417 16.4666 33.8368 15.1745C32.8319 13.8823 31.3783 13.0149 29.7639 12.744C8.29995 9.20501 9.42295 9.264 8.20795 9.264C6.02707 9.26586 3.93626 10.134 2.39546 11.6774C0.854659 13.2208 -0.00991017 15.3131 -0.00805366 17.494C-0.00619714 19.6749 0.861933 21.7657 2.40536 23.3065C3.94878 24.8473 6.04107 25.7119 8.22195 25.71H11.9629L15.3319 38.61C11.2674 40.0338 7.68679 42.5749 5.00108 45.9416C2.31538 49.3082 0.633468 53.364 0.148444 57.6433C-0.336581 61.9226 0.394939 66.2519 2.25902 70.1343C4.12311 74.0166 7.0442 77.2946 10.6869 79.592H5.28695C3.88581 79.592 2.54206 80.1486 1.5513 81.1394C0.560546 82.1301 0.00394622 83.4739 0.00394622 84.875C0.00394622 86.2761 0.560546 87.6199 1.5513 88.6106C2.54206 89.6014 3.88581 90.158 5.28695 90.158H84.8769C86.2781 90.158 87.6218 89.6014 88.6126 88.6106C89.6033 87.6199 90.16 86.2761 90.16 84.875C90.16 83.4739 89.6033 82.1301 88.6126 81.1394C87.6218 80.1486 86.2781 79.592 84.8769 79.592V79.594ZM62.6889 15.144H73.2549C73.722 15.144 74.1699 14.9585 74.5002 14.6282C74.8304 14.298 75.0159 13.8501 75.0159 13.383V5.283C75.0159 4.81596 75.2015 4.36804 75.5317 4.03779C75.862 3.70754 76.3099 3.522 76.7769 3.522C77.244 3.522 77.6919 3.70754 78.0222 4.03779C78.3524 4.36804 78.5379 4.81596 78.5379 5.283V13.383C78.5364 14.7837 77.9792 16.1265 76.9888 17.1169C75.9984 18.1073 74.6556 18.6644 73.2549 18.666H62.7629C62.7069 18.666 62.6509 18.66 62.5949 18.661C62.1351 18.6393 61.7021 18.4381 61.3889 18.1008C61.0756 17.7634 60.9071 17.3167 60.9196 16.8565C60.932 16.3963 61.1244 15.9593 61.4554 15.6393C61.7864 15.3193 62.2296 15.1419 62.6899 15.145L62.6889 15.144ZM64.0719 22.188H67.6649L62.3519 49.473L58.9919 48.329L64.0719 22.188ZM8.22195 22.188C6.97543 22.1899 5.77923 21.6965 4.89649 20.8164C4.01376 19.9362 3.5168 18.7415 3.51495 17.495C3.51309 16.2485 4.00649 15.0523 4.88659 14.1696C5.7667 13.2868 6.96143 12.7899 8.20795 12.788C8.92795 12.788 8.04795 12.719 29.1849 16.219C29.9289 16.3431 30.5989 16.7424 31.0622 17.3375C31.5255 17.9327 31.7481 18.6802 31.6859 19.4319C31.6237 20.1835 31.2813 20.8843 30.7265 21.3952C30.1717 21.9061 29.4451 22.1898 28.6909 22.19L8.22195 22.188ZM22.2999 37.341C21.1031 37.3715 19.9105 37.4956 18.7329 37.712L15.5989 25.712H19.2709L22.2999 37.341ZM3.52195 60.224C3.52191 57.1222 4.26663 54.0657 5.6935 51.3116C7.12036 48.5574 9.18765 46.1861 11.7215 44.3971C14.2554 42.608 17.1818 41.4535 20.2547 41.0307C23.3275 40.6078 26.457 40.9289 29.3799 41.967L29.4029 41.975L79.6229 59.075C81.6746 59.811 83.4492 61.162 84.7047 62.9438C85.9601 64.7256 86.6353 66.8513 86.6379 69.031C86.6379 74.559 81.101 79.418 75.021 79.421L20.3829 79.437C15.7201 78.8247 11.4389 76.5382 8.33691 73.0034C5.2349 69.4687 3.52364 64.9268 3.52195 60.224ZM84.8769 86.638H5.28295C4.8159 86.638 4.36798 86.4525 4.03773 86.1222C3.70748 85.792 3.52195 85.3441 3.52195 84.877C3.52195 84.41 3.70748 83.962 4.03773 83.6318C4.36798 83.3015 4.8159 83.116 5.28295 83.116H84.8769C85.344 83.116 85.7919 83.3015 86.1222 83.6318C86.4524 83.962 86.6379 84.41 86.6379 84.877C86.6379 85.3441 86.4524 85.792 86.1222 86.1222C85.7919 86.4525 85.344 86.638 84.8769 86.638Z" fill="#FF1414"/>
<path d="M66.207 58.463C64.4665 58.463 62.7651 58.9791 61.318 59.9461C59.8708 60.913 58.7429 62.2874 58.0768 63.8954C57.4108 65.5034 57.2365 67.2728 57.5761 68.9798C57.9156 70.6868 58.7537 72.2549 59.9844 73.4856C61.2151 74.7163 62.7831 75.5544 64.4902 75.8939C66.1972 76.2335 67.9666 76.0592 69.5746 75.3932C71.1826 74.7271 72.557 73.5992 73.5239 72.152C74.4909 70.7049 75.007 69.0035 75.007 67.263C75.003 64.9303 74.0746 62.6943 72.4251 61.0449C70.7757 59.3954 68.5397 58.467 66.207 58.463ZM66.207 72.551C65.1621 72.551 64.1407 72.2412 63.2719 71.6607C62.4031 71.0802 61.726 70.2551 61.3261 69.2897C60.9263 68.3244 60.8216 67.2622 61.0255 66.2374C61.2293 65.2126 61.7325 64.2712 62.4713 63.5324C63.2102 62.7935 64.1515 62.2904 65.1763 62.0865C66.2011 61.8827 67.2634 61.9873 68.2287 62.3871C69.194 62.787 70.0191 63.4642 70.5996 64.3329C71.1801 65.2017 71.49 66.2231 71.49 67.268C71.4884 68.6687 70.9313 70.0115 69.9409 71.0019C68.9505 71.9923 67.6076 72.5494 66.207 72.551Z" fill="#FF1414"/>
<path d="M41.559 69.029H34.188L32.766 67.607C34.6318 65.1117 35.4832 62.0022 35.1489 58.9045C34.8145 55.8067 33.3192 52.9506 30.9639 50.9109C28.6086 48.8712 25.5682 47.7992 22.4544 47.9109C19.3407 48.0225 16.3848 49.3094 14.1816 51.5126C11.9785 53.7158 10.6916 56.6716 10.5799 59.7854C10.4683 62.8991 11.5402 65.9396 13.5799 68.2949C15.6196 70.6502 18.4758 72.1455 21.5735 72.4798C24.6713 72.8142 27.7807 71.9628 30.276 70.097L32.214 72.035C32.5442 72.3652 32.992 72.5509 33.459 72.551H41.559C42.0261 72.551 42.474 72.3654 42.8042 72.0352C43.1345 71.7049 43.32 71.257 43.32 70.79C43.32 70.3229 43.1345 69.875 42.8042 69.5448C42.474 69.2145 42.0261 69.029 41.559 69.029ZM30.24 65.081L24.14 58.981C23.8078 58.6608 23.3632 58.4839 22.9018 58.4882C22.4404 58.4925 21.9992 58.6776 21.6729 59.0039C21.3467 59.3301 21.1615 59.7714 21.1572 60.2327C21.1529 60.6941 21.3299 61.1387 21.65 61.471L27.75 67.571C25.9307 68.7733 23.7297 69.2572 21.5739 68.929C19.418 68.6008 17.4608 67.4838 16.0816 65.7946C14.7025 64.1053 13.9997 61.9642 14.1095 59.7863C14.2192 57.6083 15.1338 55.5487 16.6758 54.0067C18.2178 52.4647 20.2774 51.5502 22.4553 51.4404C24.6333 51.3306 26.7744 52.0334 28.4636 53.4126C30.1529 54.7917 31.2699 56.7489 31.5981 58.9048C31.9263 61.0607 31.4423 63.2616 30.24 65.081Z" fill="#FF1414"/>
</g>
<defs>
<clipPath id="clip0_6_1711">
<rect width="90.16" height="90.16" fill="white"/>
</clipPath>
</defs>
</svg>
