<svg width="91" height="91" viewBox="0 0 91 91" fill="none" xmlns="http://www.w3.org/2000/svg">
<g clip-path="url(#clip0_6_1691)">
<path d="M34.78 69.866L35.021 72.766C35.462 72.73 35.904 72.711 36.354 72.711H37.808V69.801H36.355C35.826 69.801 35.299 69.823 34.78 69.866Z" fill="#FF1414"/>
<path d="M19.1721 80.827L21.8131 82.043C22.8147 79.8879 24.2785 77.9798 26.1006 76.4543C27.9228 74.9287 30.0585 73.8231 32.3561 73.216L31.6291 70.399C28.9068 71.099 26.3754 72.3986 24.2201 74.2029C22.0648 76.0071 20.3401 78.2704 19.1721 80.827Z" fill="#FF1414"/>
<path d="M71.2561 64.7V58.168H79.9811V56.714C79.979 54.7863 79.2123 52.9381 77.8492 51.575C76.486 50.2119 74.6379 49.4451 72.7101 49.443H71.5351C71.8341 49.1395 72.1101 48.8143 72.3611 48.47C73.1189 47.4307 73.6554 46.247 73.9373 44.992C74.2193 43.7371 74.2406 42.4376 74.0001 41.174L71.5551 28.126C71.1285 25.8606 70.1112 23.7481 68.6062 22.002C67.1012 20.2559 65.1618 18.9381 62.9841 18.182C64.6147 16.9056 65.8172 15.1622 66.431 13.1844C67.0448 11.2067 67.0408 9.08881 66.4194 7.11345C65.798 5.13809 64.5889 3.39925 62.9534 2.12907C61.318 0.858883 59.334 0.117781 57.2663 0.00469468C55.1986 -0.108392 53.1456 0.411916 51.3813 1.49616C49.6171 2.58041 48.2255 4.17701 47.3924 6.07282C46.5593 7.96864 46.3243 10.0735 46.7188 12.1063C47.1133 14.1392 48.1184 16.0034 49.6001 17.45H37.8091V16C37.8179 15.4216 37.7115 14.8472 37.4962 14.3102C37.2809 13.7732 36.961 13.2845 36.555 12.8723C36.149 12.4602 35.6651 12.1328 35.1315 11.9094C34.5979 11.686 34.0251 11.571 33.4466 11.571C32.8681 11.571 32.2954 11.686 31.7617 11.9094C31.2281 12.1328 30.7442 12.4602 30.3382 12.8723C29.9323 13.2845 29.6123 13.7732 29.397 14.3102C29.1817 14.8472 29.0754 15.4216 29.0841 16V17.456H28.3541C27.0171 17.473 25.7405 18.0156 24.8004 18.9664C23.8604 19.9173 23.3324 21.2 23.3307 22.5371C23.3289 23.8742 23.8537 25.1583 24.7913 26.1115C25.7289 27.0648 27.0042 27.6107 28.3411 27.631H29.0841V37.809H17.4501L11.3001 14.542H7.77612C6.55975 14.5421 5.36037 14.8276 4.27437 15.3754C3.18837 15.9233 2.24603 16.7183 1.52311 17.6965C0.800186 18.6747 0.316832 19.8089 0.111895 21.0079C-0.0930429 22.2069 -0.013847 23.4372 0.343117 24.6L5.87112 42.564L14.5181 77.149C12.6227 80.7059 11.6322 84.6747 11.6341 88.705V90.16H90.1601V88.706C90.1503 83.1675 88.2826 77.7924 84.8559 73.4412C81.4293 69.0899 76.6419 66.0141 71.2601 64.706L71.2561 64.7ZM68.3481 64.166C67.3832 64.0474 66.4122 63.9853 65.4401 63.98V58.168H68.3481V64.166ZM55.8071 58.166H62.5301V63.983H54.5601L55.8071 58.166ZM72.7071 52.349C73.6091 52.35 74.4887 52.6301 75.2252 53.1507C75.9618 53.6713 76.5192 54.4071 76.8211 55.257H56.4301L57.0541 52.349H72.7101H72.7071ZM49.4431 10.179C49.4431 8.74096 49.8696 7.33519 50.6685 6.13948C51.4674 4.94377 52.603 4.01182 53.9316 3.4615C55.2602 2.91117 56.7222 2.76718 58.1326 3.04774C59.5431 3.32829 60.8386 4.02079 61.8555 5.03765C62.8724 6.05452 63.5649 7.35009 63.8454 8.76053C64.126 10.171 63.982 11.6329 63.4316 12.9615C62.8813 14.2901 61.9494 15.4257 60.7537 16.2246C59.558 17.0236 58.1522 17.45 56.7141 17.45C54.7864 17.4479 52.9382 16.6812 51.5751 15.3181C50.212 13.9549 49.4452 12.1068 49.4431 10.179ZM31.9921 16C31.9921 15.6144 32.1453 15.2446 32.418 14.9719C32.6907 14.6992 33.0605 14.546 33.4461 14.546C33.8317 14.546 34.2016 14.6992 34.4743 14.9719C34.7469 15.2446 34.9001 15.6144 34.9001 16V17.456H31.9921V16ZM26.1761 22.54C26.1769 21.9624 26.4066 21.4087 26.8148 21.0001C27.223 20.5915 27.7765 20.3613 28.3541 20.36H58.6911C61.0647 20.3609 63.3635 21.1908 65.1904 22.7062C67.0173 24.2216 68.2576 26.3274 68.6971 28.66L71.1441 41.709C71.3096 42.586 71.2935 43.4876 71.0967 44.3581C70.8999 45.2286 70.5267 46.0495 70.0001 46.77C69.3473 47.624 68.5017 48.3113 67.5324 48.7759C66.5631 49.2405 65.4977 49.4691 64.4231 49.443H57.0521C56.3873 49.4464 55.7435 49.6761 55.2266 50.0941C54.7097 50.5121 54.3505 51.0937 54.2081 51.743L50.8331 67.5C50.6914 68.1496 50.3326 68.7314 49.8157 69.1495C49.2989 69.5676 48.6549 69.7971 47.9901 69.8C47.7885 69.7994 47.5875 69.7783 47.3901 69.737C47.0159 69.6573 46.661 69.5046 46.3458 69.2876C46.0307 69.0706 45.7614 68.7936 45.5534 68.4724C45.3454 68.1512 45.2029 67.7922 45.1338 67.4158C45.0648 67.0394 45.0707 66.6531 45.1511 66.279L48.5261 50.523C48.9529 48.5829 50.025 46.8448 51.5672 45.5926C53.1094 44.3405 55.0307 43.6482 57.0171 43.629L58.7821 43.62L55.7001 28.229C55.5006 27.241 54.9659 26.3523 54.1866 25.7131C53.4072 25.0739 52.4311 24.7234 51.4231 24.721H28.3411C28.0558 24.7201 27.7735 24.663 27.5102 24.5529C27.247 24.4429 27.008 24.282 26.807 24.0796C26.6059 23.8771 26.4467 23.637 26.3385 23.3731C26.2302 23.1091 26.1751 22.8253 26.1761 22.54ZM42.6631 63.985H36.3551C31.9394 63.9872 27.6061 65.1809 23.8121 67.44L18.5851 46.534H30.5381C32.4659 46.5319 34.314 45.7652 35.6772 44.4021C37.0403 43.0389 37.807 41.1908 37.8091 39.263V27.628H51.4221C51.7582 27.6288 52.0837 27.746 52.3431 27.9597C52.6025 28.1734 52.7799 28.4703 52.8451 28.8L55.2591 40.864C52.9386 41.2381 50.7842 42.3012 49.0755 43.9152C47.3668 45.5292 46.1827 47.6196 45.6771 49.915L42.6631 63.985ZM29.0841 40.717C29.8551 40.7162 30.5943 40.4096 31.1395 39.8644C31.6847 39.3192 31.9913 38.58 31.9921 37.809V27.628H34.9001V39.263C34.8988 40.4198 34.4387 41.5287 33.6208 42.3467C32.8028 43.1646 31.6938 43.6247 30.5371 43.626H14.5371V40.717H29.0841ZM2.90812 22.316C2.90971 21.0256 3.42316 19.7886 4.3358 18.8763C5.24844 17.964 6.48571 17.4511 7.77612 17.45H9.06312L14.4931 37.809H11.6341V40.717H8.34412L3.12212 23.746C2.98033 23.2829 2.9082 22.8003 2.90812 22.316ZM9.13212 43.626H11.6321V46.534H15.5871L21.2501 69.179C19.53 70.5121 17.9928 72.0658 16.6781 73.8L9.13212 43.626ZM14.5901 87.252C14.9659 81.7333 17.4215 76.5627 21.4612 72.784C25.5008 69.0053 30.8236 66.9 36.3551 66.893H42.1781C42.1746 68.2255 42.6299 69.5187 43.4677 70.5549C44.3054 71.5912 45.4744 72.3073 46.7781 72.583C48.286 72.9034 49.8594 72.6124 51.153 71.774C52.4466 70.9356 53.3547 69.6183 53.6781 68.111L53.9401 66.892H65.4401C70.9709 66.9003 76.2926 69.0063 80.3312 72.7851C84.3698 76.5639 86.8246 81.734 87.2001 87.252H14.5901Z" fill="#FF1414"/>
<path d="M56.7169 75.618H45.0799C43.9343 75.6354 42.8416 76.1026 42.0376 76.9189C41.2336 77.7351 40.783 78.8348 40.783 79.9805C40.783 81.1262 41.2336 82.226 42.0376 83.0422C42.8416 83.8584 43.9343 84.3257 45.0799 84.343H56.7169C57.8625 84.3257 58.9553 83.8584 59.7592 83.0422C60.5632 82.226 61.0139 81.1262 61.0139 79.9805C61.0139 78.8348 60.5632 77.7351 59.7592 76.9189C58.9553 76.1026 57.8625 75.6354 56.7169 75.618ZM56.7169 81.435H45.0799C44.6943 81.435 44.3245 81.2819 44.0518 81.0092C43.7791 80.7365 43.6259 80.3667 43.6259 79.981C43.6259 79.5954 43.7791 79.2256 44.0518 78.9529C44.3245 78.6802 44.6943 78.527 45.0799 78.527H56.7169C57.1025 78.527 57.4724 78.6802 57.745 78.9529C58.0177 79.2256 58.1709 79.5954 58.1709 79.981C58.1709 80.3667 58.0177 80.7365 57.745 81.0092C57.4724 81.2819 57.1025 81.435 56.7169 81.435Z" fill="#FF1414"/>
<path d="M72.7101 72.71C71.5596 72.71 70.4349 73.0511 69.4783 73.6903C68.5217 74.3295 67.7761 75.238 67.3359 76.3009C66.8956 77.3638 66.7804 78.5334 67.0048 79.6618C67.2293 80.7902 67.7833 81.8267 68.5968 82.6402C69.4104 83.4537 70.4468 84.0077 71.5752 84.2322C72.7036 84.4566 73.8732 84.3414 74.9361 83.9012C75.9991 83.4609 76.9075 82.7153 77.5467 81.7587C78.1859 80.8021 78.5271 79.6775 78.5271 78.527C78.5255 76.9847 77.9121 75.506 76.8216 74.4155C75.731 73.3249 74.2523 72.7115 72.7101 72.71ZM72.7101 81.435C72.1349 81.435 71.5727 81.2644 71.0945 80.9449C70.6163 80.6253 70.2435 80.1712 70.0234 79.6398C69.8033 79.1084 69.7457 78.5237 69.8579 77.9596C69.9702 77.3955 70.2471 76.8774 70.6538 76.4707C71.0605 76.064 71.5786 75.787 72.1427 75.6748C72.7068 75.5626 73.2915 75.6202 73.8229 75.8403C74.3543 76.0604 74.8084 76.4331 75.128 76.9114C75.4475 77.3896 75.6181 77.9518 75.6181 78.527C75.6173 79.298 75.3106 80.0372 74.7655 80.5824C74.2203 81.1275 73.4811 81.4342 72.7101 81.435Z" fill="#FF1414"/>
</g>
<defs>
<clipPath id="clip0_6_1691">
<rect width="90.16" height="90.16" fill="white"/>
</clipPath>
</defs>
</svg>
