<svg width="98" height="91" viewBox="0 0 98 91" fill="none" xmlns="http://www.w3.org/2000/svg">
<g clip-path="url(#clip0_6_1697)">
<path d="M70.209 85.177L72.817 87.2641C75.911 83.4263 77.76 78.7357 78.117 73.819C78.165 73.1604 78.189 72.4847 78.189 71.7921C77.8345 63.2841 76.8404 54.8148 75.215 46.4561L71.928 47.037C73.517 55.2041 74.4937 63.4785 74.85 71.791C74.85 72.4 74.828 72.9911 74.786 73.5771C74.4773 77.8196 72.8804 81.8668 70.209 85.177Z" fill="#FF1414"/>
<path d="M98.228 5.00702H89.88V3.33702C89.8801 3.11768 89.837 2.90046 89.7531 2.69778C89.6693 2.49511 89.5463 2.31096 89.3912 2.15586C89.2361 2.00076 89.0519 1.87775 88.8492 1.79387C88.6466 1.70999 88.4293 1.66689 88.21 1.66702H78.193C77.9737 1.66689 77.7564 1.70999 77.5538 1.79387C77.3511 1.87775 77.1669 2.00076 77.0118 2.15586C76.8567 2.31096 76.7337 2.49511 76.6499 2.69778C76.566 2.90046 76.5229 3.11768 76.523 3.33702V15.025H69.844C69.844 13.6966 69.3163 12.4225 68.3769 11.4831C67.4375 10.5438 66.1635 10.016 64.835 10.016C64.2648 10.0214 63.6998 10.1252 63.165 10.323V10.016C63.165 8.68755 62.6373 7.41349 61.6979 6.47412C60.7585 5.53475 59.4845 5.00702 58.156 5.00702C57.5858 5.01236 57.0208 5.11622 56.486 5.31402V5.00702C56.4824 3.79711 56.0402 2.62955 55.2414 1.72081C54.4426 0.812064 53.3414 0.223796 52.1419 0.0650733C50.9425 -0.0936496 49.7262 0.187941 48.7185 0.857634C47.7108 1.52733 46.9802 2.53969 46.662 3.70702C45.9026 3.39812 45.0789 3.28098 44.2635 3.36595C43.4482 3.45092 42.6663 3.73538 41.987 4.19421C41.3076 4.65304 40.7517 5.27211 40.3684 5.99674C39.985 6.72137 39.7861 7.52925 39.789 8.34902V15.028H26.434V3.33702C26.4341 3.11768 26.391 2.90046 26.3071 2.69778C26.2233 2.49511 26.1003 2.31096 25.9452 2.15586C25.7901 2.00076 25.6059 1.87775 25.4032 1.79387C25.2006 1.70999 24.9833 1.66689 24.764 1.66702H14.746C14.5267 1.66689 14.3094 1.70999 14.1068 1.79387C13.9041 1.87775 13.7199 2.00076 13.5648 2.15586C13.4097 2.31096 13.2867 2.49511 13.2029 2.69778C13.119 2.90046 13.0759 3.11768 13.076 3.33702V5.00702H4.728C4.2857 5.00702 3.86149 5.18259 3.54855 5.49515C3.2356 5.80772 3.05953 6.23172 3.059 6.67402V36.73C3.059 37.1729 3.23495 37.5977 3.54813 37.9109C3.86132 38.2241 4.28609 38.4 4.729 38.4H13.077V40.074C13.077 40.5169 13.2529 40.9417 13.5661 41.2549C13.8793 41.5681 14.3041 41.744 14.747 41.744H24.764C25.2069 41.744 25.6317 41.5681 25.9449 41.2549C26.2581 40.9417 26.434 40.5169 26.434 40.074V28.382H31.983C32.7579 30.7133 34.3622 32.6788 36.491 33.905L43.13 37.698V57.884C37.7818 55.937 32.1206 54.9919 26.43 55.096C7.4 55.096 0.292 65.417 0 65.857L2.775 67.717C3.032 67.338 9.288 58.436 26.434 58.436C43.645 58.436 50.118 66.087 50.174 66.158L52.782 64.074C50.9989 62.1192 48.8554 60.5268 46.469 59.384V36.73C46.4698 36.4362 46.393 36.1474 46.2463 35.8928C46.0997 35.6382 45.8885 35.4268 45.634 35.28L38.154 31.004C37.1116 30.4009 36.2493 29.5302 35.6563 28.482C35.0633 27.4338 34.7611 26.2462 34.781 25.042C34.7865 23.5656 35.281 22.1326 36.1873 20.9671C37.0936 19.8016 38.3605 18.9692 39.79 18.6V23.374H43.13V8.34602C43.1245 8.12334 43.1637 7.90182 43.2452 7.6945C43.3266 7.48718 43.4487 7.29825 43.6043 7.13883C43.7598 6.9794 43.9457 6.85272 44.151 6.76622C44.3563 6.67972 44.5768 6.63516 44.7995 6.63516C45.0222 6.63516 45.2427 6.67972 45.448 6.76622C45.6533 6.85272 45.8392 6.9794 45.9947 7.13883C46.1503 7.29825 46.2724 7.48718 46.3538 7.6945C46.4353 7.90182 46.4745 8.12334 46.469 8.34602V13.355H49.808V5.00702C49.8025 4.78434 49.8417 4.56282 49.9232 4.3555C50.0046 4.14818 50.1267 3.95925 50.2823 3.79983C50.4378 3.6404 50.6237 3.51372 50.829 3.42722C51.0343 3.34072 51.2548 3.29616 51.4775 3.29616C51.7002 3.29616 51.9207 3.34072 52.126 3.42722C52.3313 3.51372 52.5172 3.6404 52.6727 3.79983C52.8283 3.95925 52.9504 4.14818 53.0318 4.3555C53.1133 4.56282 53.1525 4.78434 53.147 5.00702V15.025H56.486V10.016C56.4805 9.79334 56.5197 9.57182 56.6012 9.3645C56.6826 9.15718 56.8047 8.96825 56.9603 8.80883C57.1158 8.6494 57.3017 8.52272 57.507 8.43622C57.7123 8.34972 57.9328 8.30516 58.1555 8.30516C58.3782 8.30516 58.5987 8.34972 58.804 8.43622C59.0093 8.52272 59.1952 8.6494 59.3507 8.80883C59.5063 8.96825 59.6284 9.15718 59.7098 9.3645C59.7913 9.57182 59.8305 9.79334 59.825 10.016V16.695H63.164V15.025C63.1586 14.8023 63.1977 14.5808 63.2792 14.3735C63.3606 14.1662 63.4827 13.9772 63.6383 13.8178C63.7938 13.6584 63.9797 13.5317 64.185 13.4452C64.3903 13.3587 64.6108 13.3142 64.8335 13.3142C65.0563 13.3142 65.2767 13.3587 65.482 13.4452C65.6873 13.5317 65.8732 13.6584 66.0287 13.8178C66.1843 13.9772 66.3064 14.1662 66.3878 14.3735C66.4693 14.5808 66.5084 14.8023 66.503 15.025V29.657L63.331 35.983C63.1603 36.323 63.1112 36.7112 63.192 37.083C63.25 37.316 68.172 60.42 68.172 71.797C68.172 72.2424 68.1567 72.6774 68.126 73.102C67.7622 76.8978 65.9818 80.4173 63.1395 82.9593C60.2973 85.5013 56.6017 86.8794 52.789 86.819H1.389V90.158H52.789C57.446 90.2165 61.9539 88.5177 65.414 85.4003C68.8741 82.2828 71.0322 77.9759 71.458 73.338C71.4947 72.836 71.513 72.3207 71.513 71.792C71.513 60.947 67.376 40.706 66.589 36.955L69.676 30.797C69.7884 30.5645 69.8455 30.3092 69.843 30.051V28.381H76.522V40.074C76.522 40.5169 76.6979 40.9417 77.0111 41.2549C77.3243 41.5681 77.7491 41.744 78.192 41.744H88.211C88.6539 41.744 89.0787 41.5681 89.3919 41.2549C89.7051 40.9417 89.881 40.5169 89.881 40.074V38.404H98.229C98.6719 38.404 99.0967 38.2281 99.4099 37.9149C99.7231 37.6017 99.899 37.1769 99.899 36.734V6.67402C99.8987 6.45484 99.8553 6.23787 99.7712 6.03547C99.6871 5.83308 99.5639 5.64924 99.4087 5.49444C99.2536 5.33965 99.0694 5.21693 98.8669 5.1333C98.6643 5.04967 98.4472 5.00676 98.228 5.00702ZM6.4 35.061V30.052H9.737V26.712H6.4V23.374H9.737V20.034H6.4V16.695H9.737V13.355H6.4V8.34602H13.079V35.061H6.4ZM23.1 38.4H16.416V5.00702H23.095L23.1 38.4ZM26.434 18.364H34.034C32.3934 20.2049 31.4745 22.5773 31.447 25.043H26.434V18.364ZM69.845 25.043V18.364H76.524V25.043H69.845ZM86.545 38.4H79.862V5.00702H86.541L86.545 38.4ZM89.884 35.061V8.34602H96.563V13.355H93.219V16.694H96.558V20.034H93.219V23.374H96.558V26.713H93.219V30.052H96.558V35.061H89.884Z" fill="#FF1414"/>
<path d="M42.272 68.9761L43.989 66.1151C38.6328 63.1192 32.5691 61.6201 26.434 61.7751C22.8537 61.7449 19.2921 62.2936 15.887 63.4001L16.945 66.5721C20.0089 65.579 23.2132 65.0877 26.434 65.1171C31.9661 64.9386 37.442 66.2728 42.272 68.9761Z" fill="#FF1414"/>
<path d="M12.334 64.8621C11.0874 65.4803 9.89283 66.1983 8.76196 67.0091L10.71 69.7201C11.6941 69.014 12.7338 68.389 13.819 67.851L12.334 64.8621Z" fill="#FF1414"/>
</g>
<defs>
<clipPath id="clip0_6_1697">
<rect width="99.898" height="90.16" fill="white"/>
</clipPath>
</defs>
</svg>
