<svg width="98" height="91" viewBox="0 0 98 91" fill="none" xmlns="http://www.w3.org/2000/svg">
<g clip-path="url(#clip0_6_1638)">
<path d="M80.641 31.616C80.7665 31.7657 80.9234 31.8861 81.1005 31.9687C81.2776 32.0513 81.4706 32.0941 81.666 32.094H87.784C87.9794 32.0941 88.1724 32.0513 88.3495 31.9687C88.5266 31.8861 88.6835 31.7657 88.809 31.616L91.375 28.56C91.5781 28.3187 91.6893 28.0134 91.689 27.698V19.676H96.466C96.8203 19.6752 97.1597 19.5339 97.4098 19.283C97.6599 19.0321 97.8003 18.6922 97.8 18.338V13.753C97.8 13.3984 97.6591 13.0583 97.4084 12.8076C97.1577 12.5569 96.8176 12.416 96.463 12.416H91.688V4.393C91.6884 4.07856 91.5779 3.77406 91.376 3.533L88.81 0.478001C88.6843 0.328136 88.5274 0.207661 88.3501 0.125071C88.1728 0.0424815 87.9796 -0.000212257 87.784 7.9346e-07H81.666C81.4706 -6.60124e-05 81.2776 0.0426984 81.1005 0.125283C80.9234 0.207868 80.7665 0.328266 80.641 0.478001L78.076 3.534C77.8741 3.77506 77.7636 4.07957 77.764 4.394V12.417H20.038V4.393C20.0381 4.07844 19.9273 3.77392 19.725 3.533L17.16 0.478001C17.0345 0.328266 16.8776 0.207868 16.7005 0.125283C16.5234 0.0426984 16.3304 -6.60124e-05 16.135 7.9346e-07H10.017C9.8216 -6.60124e-05 9.62856 0.0426984 9.45147 0.125283C9.27438 0.207868 9.11754 0.328266 8.992 0.478001L6.427 3.534C6.22328 3.7761 6.11202 4.0826 6.113 4.399V12.422H1.337C0.983444 12.422 0.644279 12.562 0.393715 12.8115C0.14315 13.0609 0.00158814 13.3994 1.49602e-06 13.753V18.337C1.49602e-06 18.6916 0.140864 19.0317 0.3916 19.2824C0.642336 19.5331 0.982407 19.674 1.337 19.674H6.113V27.7C6.11292 28.0146 6.22375 28.3191 6.426 28.56L8.992 31.616C9.11765 31.7659 9.27465 31.8863 9.45192 31.9689C9.6292 32.0515 9.82243 32.0942 10.018 32.094H16.136C16.3314 32.0941 16.5244 32.0513 16.7015 31.9687C16.8786 31.8861 17.0355 31.7657 17.161 31.616L17.361 31.372V80.078H4.393C3.22778 80.0799 2.11088 80.5438 1.28732 81.3681C0.463754 82.1925 0.000794491 83.3098 1.49602e-06 84.475V88.821C-0.0002614 88.9967 0.0341271 89.1708 0.1012 89.3333C0.168273 89.4957 0.266714 89.6433 0.390892 89.7677C0.51507 89.8921 0.662549 89.9907 0.824891 90.058C0.987234 90.1254 1.16126 90.16 1.337 90.16H96.464C96.8184 90.1597 97.1582 90.0188 97.4088 89.7681C97.6593 89.5173 97.8 89.1774 97.8 88.823V84.478C97.7981 83.3135 97.3347 82.1972 96.5113 81.3737C95.6878 80.5503 94.5715 80.0869 93.407 80.085H80.437V31.373L80.641 31.616ZM95.127 15.093V17H91.688V15.09L95.127 15.093ZM80.437 4.885L82.29 2.674H87.16L89.013 4.882V27.212L87.16 29.42H82.29L80.437 27.212V4.885ZM77.762 15.093V17H20.038V15.09L77.762 15.093ZM56.516 80.081V71.718H65.806C65.9816 71.718 66.1554 71.6834 66.3176 71.6162C66.4799 71.549 66.6273 71.4506 66.7514 71.3264C66.8756 71.2022 66.974 71.0549 67.0412 70.8926C67.1084 70.7304 67.143 70.5566 67.143 70.381V66.55C67.1407 65.0671 66.5837 63.6386 65.5814 62.5457C64.5792 61.4527 63.2042 60.7744 61.727 60.644V39.2C61.7249 37.2785 60.9605 35.4364 59.6017 34.0779C58.2428 32.7195 56.4005 31.9556 54.479 31.954H43.323C41.4015 31.9556 39.5592 32.7195 38.2004 34.0779C36.8415 35.4364 36.0771 37.2785 36.075 39.2V60.644C34.5978 60.7744 33.2228 61.4527 32.2206 62.5457C31.2183 63.6386 30.6613 65.0671 30.659 66.55V70.38C30.6589 70.556 30.6935 70.7303 30.7609 70.8929C30.8282 71.0555 30.9271 71.2032 31.0517 71.3275C31.1762 71.4518 31.3242 71.5503 31.4869 71.6173C31.6496 71.6843 31.824 71.7185 32 71.718H41.29V80.081H25.793V19.681H72.008V80.081H56.516ZM59.052 60.618H38.752V39.2C38.7533 37.9875 39.2357 36.8251 40.0933 35.9679C40.9508 35.1107 42.1135 34.6288 43.326 34.628H54.478C55.6905 34.6288 56.8532 35.1107 57.7107 35.9679C58.5683 36.8251 59.0507 37.9875 59.052 39.2V60.618ZM36.588 63.292H61.21C62.0739 63.2928 62.9022 63.6363 63.5132 64.2471C64.1242 64.8579 64.4679 65.6861 64.469 66.55V69.043H33.332V66.55C33.3331 65.6861 33.6768 64.8579 34.2878 64.2471C34.8988 63.6363 35.7271 63.2928 36.591 63.292H36.588ZM43.957 71.717H53.842V80.08H43.959L43.957 71.717ZM2.674 17V15.09H6.113V17H2.674ZM15.511 29.417H10.641L8.787 27.212V4.885L10.641 2.674H15.51L17.363 4.882V27.212L15.511 29.417ZM20.038 19.675H23.118V80.075H20.038V19.675ZM95.126 84.468V87.486H2.674V84.478C2.67453 84.0223 2.85581 83.5853 3.17807 83.2631C3.50033 82.9408 3.93726 82.7595 4.393 82.759H93.407C93.8622 82.7595 94.2987 82.9404 94.6209 83.262C94.943 83.5836 95.1247 84.0198 95.126 84.475V84.468ZM74.682 80.074V19.674H77.762V80.074H74.682Z" fill="#FF1414"/>
<path d="M45.5091 41.6H52.2931C52.6477 41.6 52.9878 41.4592 53.2385 41.2084C53.4893 40.9577 53.6301 40.6176 53.6301 40.263C53.6301 39.9084 53.4893 39.5684 53.2385 39.3176C52.9878 39.0669 52.6477 38.926 52.2931 38.926H45.5091C45.1545 38.926 44.8145 39.0669 44.5637 39.3176C44.313 39.5684 44.1721 39.9084 44.1721 40.263C44.1721 40.6176 44.313 40.9577 44.5637 41.2084C44.8145 41.4592 45.1545 41.6 45.5091 41.6Z" fill="#FF1414"/>
<path d="M53.7831 45.252H44.0211C43.6665 45.252 43.3264 45.3928 43.0757 45.6436C42.8249 45.8943 42.6841 46.2344 42.6841 46.589C42.6841 46.9435 42.8249 47.2836 43.0757 47.5344C43.3264 47.7851 43.6665 47.926 44.0211 47.926H53.7871C54.1417 47.926 54.4817 47.7851 54.7325 47.5344C54.9832 47.2836 55.1241 46.9435 55.1241 46.589C55.1241 46.2344 54.9832 45.8943 54.7325 45.6436C54.4817 45.3928 54.1417 45.252 53.7871 45.252H53.7831Z" fill="#FF1414"/>
<path d="M52.2931 51.575H45.5091C45.1545 51.575 44.8145 51.7158 44.5637 51.9666C44.313 52.2173 44.1721 52.5574 44.1721 52.9119C44.1721 53.2665 44.313 53.6066 44.5637 53.8574C44.8145 54.1081 45.1545 54.249 45.5091 54.249H52.2931C52.6477 54.249 52.9878 54.1081 53.2385 53.8574C53.4893 53.6066 53.6301 53.2665 53.6301 52.9119C53.6301 52.5574 53.4893 52.2173 53.2385 51.9666C52.9878 51.7158 52.6477 51.575 52.2931 51.575Z" fill="#FF1414"/>
</g>
<defs>
<clipPath id="clip0_6_1638">
<rect width="97.801" height="90.16" fill="white"/>
</clipPath>
</defs>
</svg>
